<mxfile host="Electron" modified="2024-03-22T16:42:17.550Z" agent="Mozilla/5.0 (Windows NT 10.0; Win64; x64) AppleWebKit/537.36 (KHTML, like Gecko) draw.io/23.1.5 Chrome/120.0.6099.109 Electron/28.1.0 Safari/537.36" etag="KSGUs3rsLpB1zJnQx5VZ" version="23.1.5" type="device">
  <diagram name="Page-1" id="ikLeg4yh2RRUjD2ebFi-">
    <mxGraphModel dx="1104" dy="512" grid="1" gridSize="10" guides="1" tooltips="1" connect="1" arrows="1" fold="1" page="1" pageScale="1" pageWidth="850" pageHeight="1100" math="0" shadow="0">
      <root>
        <mxCell id="0" />
        <mxCell id="1" parent="0" />
        <mxCell id="mSt37aOnG_RG6rXOaTs9-15" style="edgeStyle=orthogonalEdgeStyle;rounded=0;orthogonalLoop=1;jettySize=auto;html=1;entryX=0.5;entryY=0;entryDx=0;entryDy=0;" edge="1" parent="1" source="mSt37aOnG_RG6rXOaTs9-1" target="mSt37aOnG_RG6rXOaTs9-2">
          <mxGeometry relative="1" as="geometry" />
        </mxCell>
        <mxCell id="mSt37aOnG_RG6rXOaTs9-1" value="Start" style="ellipse;whiteSpace=wrap;html=1;" vertex="1" parent="1">
          <mxGeometry x="305" y="50" width="190" height="80" as="geometry" />
        </mxCell>
        <mxCell id="mSt37aOnG_RG6rXOaTs9-16" style="edgeStyle=orthogonalEdgeStyle;rounded=0;orthogonalLoop=1;jettySize=auto;html=1;entryX=0.5;entryY=0;entryDx=0;entryDy=0;" edge="1" parent="1" source="mSt37aOnG_RG6rXOaTs9-2" target="mSt37aOnG_RG6rXOaTs9-4">
          <mxGeometry relative="1" as="geometry" />
        </mxCell>
        <mxCell id="mSt37aOnG_RG6rXOaTs9-2" value="Declare variables a, b and c" style="rounded=0;whiteSpace=wrap;html=1;" vertex="1" parent="1">
          <mxGeometry x="160" y="180" width="480" height="60" as="geometry" />
        </mxCell>
        <mxCell id="mSt37aOnG_RG6rXOaTs9-21" style="edgeStyle=orthogonalEdgeStyle;rounded=0;orthogonalLoop=1;jettySize=auto;html=1;exitX=0.5;exitY=1;exitDx=0;exitDy=0;entryX=0.5;entryY=0;entryDx=0;entryDy=0;" edge="1" parent="1" source="mSt37aOnG_RG6rXOaTs9-4" target="mSt37aOnG_RG6rXOaTs9-7">
          <mxGeometry relative="1" as="geometry" />
        </mxCell>
        <mxCell id="mSt37aOnG_RG6rXOaTs9-4" value="Read a, b and c" style="shape=parallelogram;perimeter=parallelogramPerimeter;whiteSpace=wrap;html=1;fixedSize=1;" vertex="1" parent="1">
          <mxGeometry x="160" y="320" width="480" height="60" as="geometry" />
        </mxCell>
        <mxCell id="mSt37aOnG_RG6rXOaTs9-45" style="edgeStyle=orthogonalEdgeStyle;rounded=0;orthogonalLoop=1;jettySize=auto;html=1;" edge="1" parent="1" source="mSt37aOnG_RG6rXOaTs9-5">
          <mxGeometry relative="1" as="geometry">
            <mxPoint x="690" y="750" as="targetPoint" />
          </mxGeometry>
        </mxCell>
        <mxCell id="mSt37aOnG_RG6rXOaTs9-5" value="is a &amp;gt; c ?" style="rhombus;whiteSpace=wrap;html=1;" vertex="1" parent="1">
          <mxGeometry x="560" y="570" width="110" height="80" as="geometry" />
        </mxCell>
        <mxCell id="mSt37aOnG_RG6rXOaTs9-6" value="is b &amp;gt; c ?" style="rhombus;whiteSpace=wrap;html=1;" vertex="1" parent="1">
          <mxGeometry x="110" y="570" width="130" height="80" as="geometry" />
        </mxCell>
        <mxCell id="mSt37aOnG_RG6rXOaTs9-22" style="edgeStyle=orthogonalEdgeStyle;rounded=0;orthogonalLoop=1;jettySize=auto;html=1;entryX=0.5;entryY=0;entryDx=0;entryDy=0;" edge="1" parent="1" source="mSt37aOnG_RG6rXOaTs9-7" target="mSt37aOnG_RG6rXOaTs9-6">
          <mxGeometry relative="1" as="geometry">
            <mxPoint x="170" y="510" as="targetPoint" />
          </mxGeometry>
        </mxCell>
        <mxCell id="mSt37aOnG_RG6rXOaTs9-23" style="edgeStyle=orthogonalEdgeStyle;rounded=0;orthogonalLoop=1;jettySize=auto;html=1;entryX=0.5;entryY=0;entryDx=0;entryDy=0;" edge="1" parent="1" source="mSt37aOnG_RG6rXOaTs9-7" target="mSt37aOnG_RG6rXOaTs9-5">
          <mxGeometry relative="1" as="geometry" />
        </mxCell>
        <mxCell id="mSt37aOnG_RG6rXOaTs9-7" value="is a &amp;gt; b ?" style="rhombus;whiteSpace=wrap;html=1;" vertex="1" parent="1">
          <mxGeometry x="335" y="470" width="130" height="80" as="geometry" />
        </mxCell>
        <mxCell id="mSt37aOnG_RG6rXOaTs9-8" value="Print b" style="shape=parallelogram;perimeter=parallelogramPerimeter;whiteSpace=wrap;html=1;fixedSize=1;" vertex="1" parent="1">
          <mxGeometry x="40" y="760" width="120" height="60" as="geometry" />
        </mxCell>
        <mxCell id="mSt37aOnG_RG6rXOaTs9-9" value="print c" style="shape=parallelogram;perimeter=parallelogramPerimeter;whiteSpace=wrap;html=1;fixedSize=1;" vertex="1" parent="1">
          <mxGeometry x="330" y="760" width="120" height="60" as="geometry" />
        </mxCell>
        <mxCell id="mSt37aOnG_RG6rXOaTs9-10" value="print a" style="shape=parallelogram;perimeter=parallelogramPerimeter;whiteSpace=wrap;html=1;fixedSize=1;" vertex="1" parent="1">
          <mxGeometry x="640" y="750" width="120" height="70" as="geometry" />
        </mxCell>
        <mxCell id="mSt37aOnG_RG6rXOaTs9-14" value="Stop" style="ellipse;whiteSpace=wrap;html=1;" vertex="1" parent="1">
          <mxGeometry x="305" y="990" width="190" height="80" as="geometry" />
        </mxCell>
        <mxCell id="mSt37aOnG_RG6rXOaTs9-28" value="" style="endArrow=none;html=1;rounded=0;exitX=1;exitY=0.5;exitDx=0;exitDy=0;entryX=0;entryY=0.5;entryDx=0;entryDy=0;" edge="1" parent="1" source="mSt37aOnG_RG6rXOaTs9-6" target="mSt37aOnG_RG6rXOaTs9-5">
          <mxGeometry width="50" height="50" relative="1" as="geometry">
            <mxPoint x="400" y="700" as="sourcePoint" />
            <mxPoint x="450" y="650" as="targetPoint" />
          </mxGeometry>
        </mxCell>
        <mxCell id="mSt37aOnG_RG6rXOaTs9-29" value="" style="endArrow=classic;html=1;rounded=0;entryX=0.583;entryY=0;entryDx=0;entryDy=0;entryPerimeter=0;" edge="1" parent="1" target="mSt37aOnG_RG6rXOaTs9-9">
          <mxGeometry width="50" height="50" relative="1" as="geometry">
            <mxPoint x="400" y="610" as="sourcePoint" />
            <mxPoint x="450" y="650" as="targetPoint" />
          </mxGeometry>
        </mxCell>
        <mxCell id="mSt37aOnG_RG6rXOaTs9-31" value="" style="endArrow=none;html=1;rounded=0;" edge="1" parent="1">
          <mxGeometry width="50" height="50" relative="1" as="geometry">
            <mxPoint x="690" y="920" as="sourcePoint" />
            <mxPoint x="90" y="920" as="targetPoint" />
          </mxGeometry>
        </mxCell>
        <mxCell id="mSt37aOnG_RG6rXOaTs9-32" value="" style="endArrow=none;html=1;rounded=0;entryX=0.408;entryY=1.033;entryDx=0;entryDy=0;entryPerimeter=0;" edge="1" parent="1" target="mSt37aOnG_RG6rXOaTs9-8">
          <mxGeometry width="50" height="50" relative="1" as="geometry">
            <mxPoint x="90" y="920" as="sourcePoint" />
            <mxPoint x="140" y="870" as="targetPoint" />
            <Array as="points">
              <mxPoint x="90" y="820" />
            </Array>
          </mxGeometry>
        </mxCell>
        <mxCell id="mSt37aOnG_RG6rXOaTs9-33" value="" style="endArrow=none;html=1;rounded=0;" edge="1" parent="1">
          <mxGeometry width="50" height="50" relative="1" as="geometry">
            <mxPoint x="690" y="920" as="sourcePoint" />
            <mxPoint x="691" y="820" as="targetPoint" />
          </mxGeometry>
        </mxCell>
        <mxCell id="mSt37aOnG_RG6rXOaTs9-35" value="" style="endArrow=classic;html=1;rounded=0;entryX=0.5;entryY=0;entryDx=0;entryDy=0;" edge="1" parent="1" target="mSt37aOnG_RG6rXOaTs9-14">
          <mxGeometry width="50" height="50" relative="1" as="geometry">
            <mxPoint x="400" y="818.96" as="sourcePoint" />
            <mxPoint x="411.02" y="990" as="targetPoint" />
          </mxGeometry>
        </mxCell>
        <mxCell id="mSt37aOnG_RG6rXOaTs9-40" value="" style="endArrow=classic;html=1;rounded=0;" edge="1" parent="1">
          <mxGeometry width="50" height="50" relative="1" as="geometry">
            <mxPoint x="90" y="610" as="sourcePoint" />
            <mxPoint x="92" y="760" as="targetPoint" />
          </mxGeometry>
        </mxCell>
        <mxCell id="mSt37aOnG_RG6rXOaTs9-42" value="" style="endArrow=none;html=1;rounded=0;" edge="1" parent="1">
          <mxGeometry width="50" height="50" relative="1" as="geometry">
            <mxPoint x="90" y="610" as="sourcePoint" />
            <mxPoint x="110" y="610" as="targetPoint" />
          </mxGeometry>
        </mxCell>
        <mxCell id="mSt37aOnG_RG6rXOaTs9-46" value="True" style="text;html=1;align=center;verticalAlign=middle;resizable=0;points=[];autosize=1;strokeColor=none;fillColor=none;" vertex="1" parent="1">
          <mxGeometry x="510" y="460" width="50" height="30" as="geometry" />
        </mxCell>
        <mxCell id="mSt37aOnG_RG6rXOaTs9-47" value="False" style="text;html=1;align=center;verticalAlign=middle;resizable=0;points=[];autosize=1;strokeColor=none;fillColor=none;" vertex="1" parent="1">
          <mxGeometry x="245" y="460" width="50" height="30" as="geometry" />
        </mxCell>
        <mxCell id="mSt37aOnG_RG6rXOaTs9-48" value="False" style="text;html=1;align=center;verticalAlign=middle;resizable=0;points=[];autosize=1;strokeColor=none;fillColor=none;" vertex="1" parent="1">
          <mxGeometry x="245" y="568" width="50" height="30" as="geometry" />
        </mxCell>
        <mxCell id="mSt37aOnG_RG6rXOaTs9-49" value="False" style="text;html=1;align=center;verticalAlign=middle;resizable=0;points=[];autosize=1;strokeColor=none;fillColor=none;" vertex="1" parent="1">
          <mxGeometry x="465" y="568" width="50" height="30" as="geometry" />
        </mxCell>
        <mxCell id="mSt37aOnG_RG6rXOaTs9-50" value="True" style="text;html=1;align=center;verticalAlign=middle;resizable=0;points=[];autosize=1;strokeColor=none;fillColor=none;" vertex="1" parent="1">
          <mxGeometry x="660" y="558" width="50" height="30" as="geometry" />
        </mxCell>
        <mxCell id="mSt37aOnG_RG6rXOaTs9-51" value="True" style="text;html=1;align=center;verticalAlign=middle;resizable=0;points=[];autosize=1;strokeColor=none;fillColor=none;" vertex="1" parent="1">
          <mxGeometry x="70" y="558" width="50" height="30" as="geometry" />
        </mxCell>
      </root>
    </mxGraphModel>
  </diagram>
</mxfile>
